<?xml version="1.0" standalone="yes"?>
<svg width="921" height="915">
<path style="fill:#000000; stroke:none;" d="M0 0L0 915L777 915L777 847L713 847L713 777L640 777L640 701L570 701L570 634L498 634L498 566L429 566L429 496L353 496L353 420L291 420L291 350L222 350L222 634L148 634L148 701L78 701L78 634L1 634L1 282L78 282L78 69L291 69L291 1L640 1L640 69L713 69L713 139L640 139L640 215L353 215L353 282L429 282L429 350L498 350L498 420L570 420L570 496L640 496L640 566L713 566L713 634L777 634L777 701L845 701L845 777L921 777L921 0L0 0z"/>
<path style="fill:#0d3f36; stroke:none;" d="M291 1L291 69L222 69L222 139L291 139L291 69L640 69L640 139L353 139L353 215L640 215L640 139L713 139L713 69L640 69L640 1L291 1z"/>
<path style="fill:#684d1e; stroke:none;" d="M78 69L78 139L148 139L148 69L78 69z"/>
<path style="fill:#493615; stroke:none;" d="M148 69L148 139L222 139L222 69L148 69z"/>
<path style="fill:#2ac7ac; stroke:none;" d="M291 69L291 139L353 139L353 69L291 69z"/>
<path style="fill:#27b399; stroke:none;" d="M353 69L353 139L498 139L498 69L353 69z"/>
<path style="fill:#2ac7ac; stroke:none;" d="M498 69L498 139L570 139L570 69L498 69z"/>
<path style="fill:#33eacb; stroke:none;" d="M570 69L570 139L640 139L640 69L570 69z"/>
<path style="fill:#291e0c; stroke:none;" d="M78 139L78 215L148 215L148 139L78 139z"/>
<path style="fill:#896727; stroke:none;" d="M148 139L148 214L221 214L221 139L148 139z"/>
<path style="fill:#68733b; stroke:none;" d="M221 139L221 214L148 214L148 215L222 215L222 163L221 139z"/>
<path style="fill:#56a178; stroke:none;" d="M222 139L222 215L223 215L223 163L222 139z"/>
<path style="fill:#27b399; stroke:none;" d="M223 139L223 215L353 215L353 139L223 139z"/>
<path style="fill:#0d3f36; stroke:none;" d="M78 215L78 282L1 282L1 634L78 634L78 701L148 701L148 634L222 634L222 350L148 350L148 634L78 634L78 282L148 282L148 215L78 215z"/>
<path style="fill:#27b399; stroke:none;" d="M148 215L148 350L78 350L78 496L147 496L147 566L148 566L148 350L222 350L222 215L148 215z"/>
<path style="fill:#2ac7ac; stroke:none;" d="M222 215L222 281L290 281L290 215L222 215z"/>
<path style="fill:#56b59d; stroke:none;" d="M290 215L290 281L222 281L222 282L291 282L291 236L290 215z"/>
<path style="fill:#294423; stroke:none;" d="M291 215L291 282L292 282L292 216L353 216L333 215L291 215z"/>
<path style="fill:#493615; stroke:none;" d="M292 216L292 282L353 282L353 350L429 350L429 420L498 420L498 496L570 496L570 566L640 566L640 634L713 634L713 701L777 701L777 777L845 777L845 847L921 847L921 777L845 777L845 701L777 701L777 634L713 634L713 566L640 566L640 496L570 496L570 420L498 420L498 350L429 350L429 282L353 282L353 216L292 216z"/>
<path style="fill:#2ac7ac; stroke:none;" d="M78 282L78 350L148 350L148 282L78 282z"/>
<path style="fill:#00311c; stroke:none;" d="M222 282L222 350L223 350L223 283L291 283L269 282L222 282z"/>
<path style="fill:#684d1e; stroke:none;" d="M291 282L291 350L353 350L353 282L291 282z"/>
<path style="fill:#291e0c; stroke:none;" d="M223 283L223 350L291 350L291 283L223 283M291 350L291 420L353 420L353 496L429 496L429 566L498 566L498 634L570 634L570 701L640 701L640 777L713 777L713 847L777 847L777 915L845 915L845 847L777 847L777 777L713 777L713 701L640 701L640 634L570 634L570 566L498 566L498 496L429 496L429 420L353 420L353 350L291 350z"/>
<path style="fill:#896727; stroke:none;" d="M353 350L353 420L429 420L429 350L353 350z"/>
<path style="fill:#684d1e; stroke:none;" d="M429 420L429 496L498 496L498 420L429 420z"/>
<path style="fill:#2ac7ac; stroke:none;" d="M78 496L78 566L147 566L147 496L78 496z"/>
<path style="fill:#896727; stroke:none;" d="M498 496L498 566L570 566L570 496L498 496z"/>
<path style="fill:#33eacb; stroke:none;" d="M78 566L78 634L148 634L148 566L78 566z"/>
<path style="fill:#684d1e; stroke:none;" d="M570 566L570 634L640 634L640 566L570 566z"/>
<path style="fill:#896727; stroke:none;" d="M640 634L640 701L713 701L713 634L640 634z"/>
<path style="fill:#684d1e; stroke:none;" d="M713 701L713 777L777 777L777 701L713 701z"/>
<path style="fill:#896727; stroke:none;" d="M777 777L777 847L845 847L845 777L777 777z"/>
<path style="fill:#684d1e; stroke:none;" d="M845 847L845 915L921 915L921 847L845 847z"/>
</svg>
